<svg xmlns="http://www.w3.org/2000/svg" width="64" height="64" viewBox="0 0 64 64">
  <defs>
    <linearGradient id="a" x1="12" x2="52" y1="10" y2="54" gradientUnits="userSpaceOnUse">
      <stop stop-color="#f0dfb2" />
      <stop offset="1" stop-color="#c7a66a" />
    </linearGradient>
  </defs>
  <rect width="64" height="64" rx="18" fill="#15110e" />
  <circle cx="29" cy="32" r="15" fill="url(#a)" />
  <circle cx="35" cy="31" r="15" fill="#15110e" />
  <circle cx="44" cy="20" r="3.4" fill="#f0dfb2" />
  <path
    fill="#f0dfb2"
    d="M47.5 27.3c1.6.3 2.9 1.6 3.2 3.2.1.4.6.4.7 0 .3-1.6 1.6-2.9 3.2-3.2.4-.1.4-.6 0-.7-1.6-.3-2.9-1.6-3.2-3.2-.1-.4-.6-.4-.7 0-.3 1.6-1.6 2.9-3.2 3.2-.4.1-.4.6 0 .7Z"
  />
</svg>
